<svg xmlns="http://www.w3.org/2000/svg" width="500" height="330" viewBox="0 0 500 330">
    <g fill="none" fill-rule="evenodd">
        <path fill="#FADACE" d="M262.812 23.564c-89.488 40.51-65.754 98.097-186.435 94.663-120.68-3.434-113.101 290.388 130.212 175.667 37.85-17.846 118.53 52.786 185.795 32.362 179.56-54.518 133.12-421.61-129.572-302.692z"/>
        <path fill="#E59E95" d="M110 123.58H34.113a2.934 2.934 0 0 1 0-5.869H110a2.934 2.934 0 0 1 0 5.868"/>
        <path fill="#F4C4B7" d="M249.84 45.134H200.4a3.003 3.003 0 1 1 0-6.007h49.44a3.003 3.003 0 0 1 0 6.007"/>
        <path fill="#41639F" d="M67.906 162.299H59.18a4.152 4.152 0 0 1-4.15-4.153v-8.193a4.152 4.152 0 0 1 4.15-4.153h8.725c2.292 0 4.15 1.86 4.15 4.153v8.193a4.152 4.152 0 0 1-4.15 4.153"/>
        <path fill="#E59E95" d="M321.676 307.784h-4.76a2.265 2.265 0 0 1-2.264-2.266v-4.47a2.265 2.265 0 0 1 2.265-2.266h4.759a2.266 2.266 0 0 1 2.265 2.266v4.47a2.266 2.266 0 0 1-2.265 2.266"/>
        <path fill="#41639F" d="M407.043 116.893h-4.76a2.265 2.265 0 0 1-2.264-2.266v-4.47a2.265 2.265 0 0 1 2.265-2.266h4.76a2.265 2.265 0 0 1 2.264 2.266v4.47a2.264 2.264 0 0 1-2.265 2.266"/>
        <path fill="#FEFBEB" d="M74.224 255.012l-24.035 12.457 6.924 3.354-8.598 10.284 6.71 5.497 8.305-11.044 5.568 5.971 5.126-26.52"/>
        <path fill="#F4C4B7" d="M157.912 306.836H129.83a3.766 3.766 0 0 1-3.766-3.767 3.766 3.766 0 0 1 3.766-3.767h28.082a3.766 3.766 0 0 1 3.765 3.767 3.766 3.766 0 0 1-3.765 3.767"/>
        <path fill="#FADACE" d="M338.136 280.146h-226.16a4.744 4.744 0 0 1-4.744-4.744V86.946a4.744 4.744 0 0 1 4.743-4.745h226.161a4.744 4.744 0 0 1 4.743 4.745v188.456a4.744 4.744 0 0 1-4.743 4.744"/>
        <path stroke="#FEFBEB" stroke-width="1.941" d="M107.232 106.02H342.88 107.232zm230.904 174.126h-226.16a4.744 4.744 0 0 1-4.744-4.744V86.946a4.744 4.744 0 0 1 4.743-4.745h226.161a4.744 4.744 0 0 1 4.743 4.745v188.456a4.744 4.744 0 0 1-4.743 4.744zM130.476 94.353a3.323 3.323 0 1 1-6.647.001 3.323 3.323 0 0 1 6.646 0zm12.91 0a3.323 3.323 0 1 1-3.322-3.323 3.322 3.322 0 0 1 3.322 3.323zm12.912 0a3.323 3.323 0 1 1-6.647.001 3.323 3.323 0 0 1 6.647 0z"/>
        <path fill="#41639F" d="M237.37 209.761l-.494-6.657-41.48 2.04v6.425s-9.33 8.88-13.012 67.961h74.668s8.192-52.288-19.683-69.769"/>
        <path stroke="#0A090B" stroke-width="1.552" d="M195.396 211.57l41.973-1.809m-33.397 29.048l8.598 3.503 4.603 37.218"/>
        <path fill="#DA5E54" d="M150.047 196.892l11.459-37.847 25.207 9.453-12.094 36.246c-2.478 7.487-11.03 11.019-18.064 7.46a12.907 12.907 0 0 1-6.508-15.312"/>
        <path fill="#DA5E54" d="M169.508 194.052l-28.79-54.612s.658-9.868-15.727-10.458l.004.015c-.223-.01-.445-.03-.668-.03h-5.476c-1.018 0-1.944.716-2.084 1.725a2.027 2.027 0 0 0 1.753 2.307l5.524.781-7.515 2.007-1.403.518-10.233-6.765a1.659 1.659 0 0 0-2.028 2.625c.632.527 1.648 1.4 2.756 2.358l-2.26-1.354a1.659 1.659 0 0 0-1.81 2.778c.551.39 1.262.89 2.017 1.422l-.786-.307c-.86-.336-1.88-.093-2.405.668a1.952 1.952 0 0 0 .85 2.913l11.181 4.683c1.93.808 3.776 1.313 6.047.775l9.968-2.351 22.304 62.46 18.781-12.158"/>
        <path stroke="#BF4B4A" stroke-width="1.5" d="M157.693 171.639l5.328 10.106"/>
        <path fill="#FEFBEB" d="M190.136 129.308l-10.701.801s-15.496 21.029 15.96 75.035l41.482-2.04 3.126-58.187-5.122-16.52h-18.585l-26.16.911"/>
        <path stroke="#FADACE" stroke-width="1.552" d="M177.989 165.226s-3.087-6.495-1.104-20.884"/>
        <path fill="#DA5E54" d="M274.28 189.294L257.052 153.7l-23.421 13.277 17.603 33.91c3.616 7.009 12.614 9.161 19.007 4.548a12.91 12.91 0 0 0 4.039-16.142"/>
        <path fill="#FEFBEB" d="M247.755 134.71c-3.394-6.933-11.845-9.685-18.667-6.08-6.634 3.504-9.206 11.703-5.764 18.372l10.307 19.976 23.421-13.277-9.297-18.992"/>
        <path stroke="#FADACE" stroke-width="1.552" d="M233.63 166.978l-8.51-16.494"/>
        <path fill="#DA5E54" d="M310.239 128.402c-.525-.76-1.544-1.003-2.405-.667l-5.004 1.954 4.7-3.978c.779-.66.998-1.824.41-2.657a1.952 1.952 0 0 0-2.829-.407l-4.373 3.523 3.727-4.876c.62-.811.585-1.995-.169-2.682a1.951 1.951 0 0 0-2.848.207l-7.36 7.64-7.516-2.006 5.525-.781a2.026 2.026 0 0 0 1.752-2.308c-.14-1.009-1.066-1.725-2.083-1.725h-5.477c-3.234 0-6.392 1.13-8.786 3.28-.041.03-.077.052-.119.085-3.36 2.65-2.137 8.085-2.137 8.085l-20.634 58.441 20.449 9.075 11.788-62.76 7.53.014a7.93 7.93 0 0 0 1.403.003h.056l-.003-.003a8.01 8.01 0 0 0 2.372-.583l11.182-3.96a1.952 1.952 0 0 0 .849-2.914"/>
        <path stroke="#BF4B4A" stroke-width="1.5" d="M262.63 165.226l-4.456 15.563"/>
        <path fill="#0A090B" d="M189.304 81.099c-1.29.885-9.938 3.134-10.109 4.704 0 0 2.845 11.127-.069 13.203-7.878 5.614-10.4 16.62-10.4 16.62s20.783 15.57 76.031-.778c0 0 .662-6.621-9.386-11.428-2.87-1.372-5.418-3.44-7.03-6.248-1.248-2.175-1.437-3.098-1.768-5.05-.925-5.457-15.977-25.636-37.269-11.023"/>
        <path fill="#BF4B4A" d="M190.12 97.777a6.628 6.628 0 0 1-6.149 7.072 6.627 6.627 0 0 1-7.07-6.152 6.627 6.627 0 0 1 6.15-7.073 6.627 6.627 0 0 1 7.07 6.153"/>
        <path fill="#DA5E54" d="M193.114 114.013l.916 14.416c.311 5.063 2.38 8.512 7.358 8.166 4.251-.296 9.307-3.702 9.54-7.958l-2.533-22.618-15.28 7.994"/>
        <path fill="#DA5E54" d="M190.136 129.308l26.16-.91s-.636 12.867-16.184 11.662c-10.808-.837-9.976-10.752-9.976-10.752"/>
        <path fill="#BF4B4A" d="M193.868 125.888l16.72-16.354-17.598 3.003.878 13.351"/>
        <path fill="#DA5E54" d="M197.499 116.343c-8.513.025-15.543-6.682-15.798-13.636l-.501-16.413c-.319-8.716 6.33-16.114 15.028-16.72 8.904-.62 18.185 5.991 18.804 14.898l.26 13.205c.2 10.212-7.608 17.957-17.793 18.666"/>
        <path stroke="#0A090B" stroke-linecap="round" stroke-linejoin="round" stroke-width="1.238" d="M190.63 96.93l-.494 4.075 2.105.078"/>
        <path fill="#0A090B" d="M199.039 86.982s-4.703-.386-4.75 1.53c0 0 .004 1.296 4.106 1.553 4.104.257 5.17-.044 5.545-1.262s-2.695-1.81-4.901-1.821M185.404 89.78s3.562-.287 3.897 1.434c0 0 .2 1.165-2.92 1.345-3.12.178-4.087-.21-4.146-1.195-.07-1.174 1.471-1.602 3.169-1.585M187.472 95.375a1.506 1.506 0 1 1-3.01.1 1.506 1.506 0 0 1 3.01-.1M200.11 94.96a1.506 1.506 0 1 1-3.01.1 1.506 1.506 0 0 1 3.01-.1"/>
        <path stroke="#0A090B" stroke-linecap="round" stroke-linejoin="round" stroke-width="1.238" d="M195.709 103.914s-2.225-1.015-4.912 1.305"/>
        <path fill="#0A090B" d="M201.497 66.753a20.386 20.386 0 0 0-6.317.668c-5.099 1.358-14.255 5.136-15.824 14.933-.523 2.583-.16 3.449-.16 3.449s17.1.67 27.21-4.105c1.455 6.164 2.8 9.977 8.885 15.979l5.402-8.124 6.083 5.457c.039.207.031-26.911-25.28-28.257"/>
        <path fill="#DA5E54" d="M224.163 97.843a6.626 6.626 0 1 1-13.218.92 6.626 6.626 0 0 1 13.219-.92"/>
        <path stroke="#0A090B" stroke-linecap="round" stroke-linejoin="round" stroke-width="1.238" d="M215.025 100.197s-.334-4.794 4.3-4.358"/>
        <path fill="#FEFBEB" d="M167.725 138.833c2.27-7.378 10.187-11.417 17.488-8.922 7.1 2.426 10.92 10.121 8.562 17.247l-7.062 21.34-25.207-9.453 6.219-20.212"/>
        <g>
            <path fill="#F4C4B7" d="M156.154 244.472H36.408a6.868 6.868 0 0 1-6.866-6.87v-44.41a6.868 6.868 0 0 1 6.866-6.871h119.746a6.868 6.868 0 0 1 6.867 6.87v44.41a6.869 6.869 0 0 1-6.867 6.871"/>
            <path stroke="#FEFBEB" stroke-width="1.477" d="M45.73 197.118a2.528 2.528 0 1 1-5.056.002 2.528 2.528 0 0 1 5.056-.002zm9.822 0a2.528 2.528 0 1 1-5.056.002 2.528 2.528 0 0 1 5.056-.002zm9.823 0a2.528 2.528 0 1 1-5.056.002 2.528 2.528 0 0 1 5.056-.002zm-35.833 9.572h133.479H29.542z"/>
        </g>
        <g>
            <path fill="#F4C4B7" d="M371.358 112.51h-53.72a8.12 8.12 0 0 1-8.117-8.122V61.036a8.12 8.12 0 0 1 8.118-8.122h53.719a8.12 8.12 0 0 1 8.118 8.122v43.352a8.12 8.12 0 0 1-8.118 8.121"/>
            <path fill="#FEFBEB" d="M340.083 65.303c6.666 0 12.089 5.425 12.089 12.094 0 2.848-.99 5.47-2.643 7.539l1.976 1.976a1.918 1.918 0 0 1 2.517.17l7.063 7.066a1.92 1.92 0 0 1 0 2.714l-1.571 1.572c-.75.75-1.964.75-2.713 0l-7.063-7.066a1.92 1.92 0 0 1-.17-2.519l-1.978-1.979a12.027 12.027 0 0 1-7.507 2.62c-6.665 0-12.087-5.424-12.087-12.093s5.422-12.094 12.087-12.094zm0 2.74c-5.155 0-9.348 4.196-9.348 9.354 0 5.157 4.193 9.353 9.348 9.353 5.156 0 9.35-4.196 9.35-9.353 0-5.158-4.194-9.354-9.35-9.354z"/>
        </g>
        <g>
            <path fill="#41639F" d="M86.728 93.826H55.854c-5.176 0-9.373-4.199-9.373-9.378V58.255c0-5.179 4.197-9.377 9.373-9.377h30.874c5.176 0 9.372 4.198 9.372 9.377v26.193c0 5.18-4.196 9.378-9.372 9.378"/>
            <path fill="#FEFBEB" d="M71.29 60.002c5.797 0 10.512 4.718 10.512 10.517 0 5.798-4.715 10.516-10.511 10.516-5.796 0-10.511-4.718-10.511-10.516 0-5.799 4.715-10.517 10.51-10.517zm5.805 6.006l-9.088 11.091a7.305 7.305 0 0 0 3.284.775c4.054 0 7.352-3.3 7.352-7.355a7.321 7.321 0 0 0-1.548-4.511zm-5.804-2.845c-4.054 0-7.353 3.3-7.353 7.356 0 1.794.646 3.44 1.717 4.719l9.157-11.176a7.305 7.305 0 0 0-3.521-.9z"/>
        </g>
        <g>
            <path fill="#41639F" d="M416.915 251.954H305.068c-4.778 0-8.651-3.875-8.651-8.657V159.8c0-4.78 3.873-8.656 8.651-8.656h111.847c4.778 0 8.652 3.876 8.652 8.656v83.497c0 4.782-3.874 8.657-8.652 8.657"/>
            <path fill="#FEFBEB" fill-rule="nonzero" d="M329.14 220.851h8.925v-5.614h3.818v-7.364h-3.818v-18.592h-10.948l-13.938 19.237.736 6.719h15.226v5.614zm-6.807-12.978l6.808-9.48v9.48h-6.808zm37.26 13.53c8.74 0 14.904-6.765 14.904-16.383 0-9.572-6.164-16.337-14.904-16.337s-14.904 6.765-14.904 16.337c0 9.618 6.164 16.384 14.904 16.384zm0-8.1c-3.358 0-5.704-3.45-5.704-8.283 0-4.832 2.346-8.238 5.704-8.238 3.358 0 5.704 3.406 5.704 8.238 0 4.832-2.346 8.284-5.704 8.284zm33.165 7.548h8.924v-5.614h3.818v-7.364h-3.818v-18.592h-10.948l-13.937 19.237.736 6.719h15.225v5.614zm-6.808-12.978l6.808-9.48v9.48h-6.808z"/>
            <path stroke="#FEFBEB" stroke-width="1.43" d="M312.23 160.661a2.448 2.448 0 1 1-2.448-2.449 2.448 2.448 0 0 1 2.448 2.45zm9.514 0a2.448 2.448 0 1 1-2.448-2.449 2.448 2.448 0 0 1 2.448 2.45zm9.515 0a2.449 2.449 0 1 1-4.898.001 2.449 2.449 0 0 1 4.898 0zm-34.842 10.215h129.15-129.15z"/>
        </g>
    </g>
</svg>
